<?xml version="1.0" encoding="UTF-8"?>
<!DOCTYPE svg PUBLIC "-//W3C//DTD SVG 1.1//EN" "http://www.w3.org/Graphics/SVG/1.1/DTD/svg11.dtd">
<!-- Creator: CorelDRAW SE -->
<svg xmlns="http://www.w3.org/2000/svg" xml:space="preserve" width="120.335mm" height="41.8837mm" version="1.1" style="shape-rendering:geometricPrecision; text-rendering:geometricPrecision; image-rendering:optimizeQuality; fill-rule:evenodd; clip-rule:evenodd"
viewBox="0 0 8312.48 2893.25"
 xmlns:xlink="http://www.w3.org/1999/xlink">
 <defs>
  <style type="text/css">
   <![CDATA[
    .fil1 {fill:#1AA493}
    .fil0 {fill:#212A32}
    .fil2 {fill:#1AA493;fill-rule:nonzero}
    .fil3 {fill:#212A32;fill-rule:nonzero}
   ]]>
  </style>
 </defs>
 <g id="Vrstva_x0020_1">
  <metadata id="CorelCorpID_0Corel-Layer"/>
  <path class="fil0" d="M1409.41 2893.25l0 -361.66 -548.11 -316.44 -548.11 -316.45 0 -632.9 0 -632.9 -313.2 -180.83 0 813.73 0 813.72 704.71 406.87 704.71 406.86zm313.2 -2169.92l0 361.64 0 723.31 313.2 180.83 0 -1084.97 -313.2 -180.82zm-626.41 0l313.21 -180.83 -313.21 -180.83 0 361.67zm313.21 542.48l-626.41 -361.66 -313.21 -180.82 0 542.48 0 542.47 469.81 271.25 469.81 271.26 0 -1084.98zm0 -1084.96l939.61 542.48 0 542.48 0 542.47 156.6 90.43 0 -632.9 -0.01 -632.9 -548.09 -316.45 -548.1 -316.45 -0.01 180.84z"/>
  <path class="fil1" d="M1722.61 1084.97l-313.2 180.83 0 1084.98 313.2 -180.84 0 -361.66 0 -723.31zm-313.21 -180.83l313.21 180.83 0 -361.64 -313.21 180.82zm626.41 0l0 1084.97 313.21 -180.84 0 -542.47 0 -542.48 -313.21 180.82zm469.81 994.56l-548.11 316.45 -548.1 316.44 0 361.66 704.71 -406.86 704.7 -406.87 0 -813.72 0 -813.73 -313.2 180.83 0 632.9 0 632.9zm-2035.82 -632.9l0 -542.48 313.21 -180.82 313.2 180.82 0 -361.67 313.21 -180.82 0.01 -180.84 -548.11 316.45 -548.11 316.45 0 632.9 0 632.9 156.6 -90.43 0 -542.47z"/>
  <path class="fil2" d="M7926.47 1847.9l256.17 0c1.17,0 2.34,-0.59 3.51,-1.75 1.17,-1.17 1.75,-2.34 1.75,-3.51l0 -249.15c0,-1.17 -0.59,-2.34 -1.75,-3.51 -1.17,-1.17 -2.34,-1.75 -3.51,-1.75l-256.17 0c-1.17,0 -2.34,0.59 -3.51,1.75 -1.17,1.17 -1.75,2.34 -1.75,3.51l0 249.15c0,1.17 0.59,2.34 1.75,3.51 1.17,1.17 2.34,1.75 3.51,1.75zm-6.14 124.58c-22.22,0 -42.7,-5.71 -61.41,-17.11 -18.71,-11.4 -33.77,-26.46 -45.18,-45.18 -11.4,-18.71 -17.11,-39.19 -17.11,-61.41l0 -261.43c0,-22.22 5.71,-42.7 17.11,-61.41 11.4,-18.71 26.46,-33.78 45.18,-45.18 18.71,-11.4 39.19,-17.1 61.41,-17.1l268.45 0c22.81,0 43.57,5.7 62.29,17.1 18.71,11.4 33.63,26.47 44.74,45.18 11.11,18.71 16.67,39.19 16.67,61.41l0 261.43c0,22.22 -5.55,42.7 -16.67,61.41 -11.11,18.71 -26.03,33.77 -44.74,45.18 -18.71,11.4 -39.48,17.11 -62.29,17.11l-268.45 0zm-348.73 -550.06l0 0 0 -125.45 124.58 0 0 125.45 -124.58 0zm0 550.06l0 0 0 -508.83 124.58 0 0 508.83 -124.58 0zm-507.52 -124.58l256.17 0c1.17,0 2.34,-0.59 3.51,-1.75 1.17,-1.17 1.75,-2.34 1.75,-3.51l0 -249.15c0,-1.17 -0.59,-2.34 -1.75,-3.51 -1.17,-1.17 -2.34,-1.75 -3.51,-1.75l-256.17 0c-1.17,0 -2.34,0.59 -3.51,1.75 -1.17,1.17 -1.75,2.34 -1.75,3.51l0 249.15c0,1.17 0.59,2.34 1.75,3.51 1.17,1.17 2.34,1.75 3.51,1.75zm-6.14 124.58c-23.4,0 -44.45,-5.71 -63.17,-17.11 -18.71,-11.4 -33.63,-26.46 -44.74,-45.18 -11.11,-18.71 -16.67,-39.19 -16.67,-61.41l0 -261.43c0,-22.22 5.55,-42.7 16.67,-61.41 11.11,-18.71 26.03,-33.78 44.74,-45.18 18.71,-11.4 39.77,-17.1 63.17,-17.1l267.57 0 0 -166.69 124.58 0 0 675.51 -392.15 0zm-612.79 0c-22.22,0 -42.84,-5.71 -61.85,-17.11 -19.01,-11.4 -34.07,-26.46 -45.18,-45.18 -11.11,-18.71 -16.67,-39.19 -16.67,-61.41l0 -385.13 124.58 0 0 378.99c0,1.17 0.59,2.34 1.75,3.51 1.17,1.17 2.34,1.75 3.51,1.75l256.17 0c1.17,0 2.34,-0.59 3.51,-1.75 1.17,-1.17 1.75,-2.34 1.75,-3.51l0 -378.99 124.58 0 0 385.13c0,22.22 -5.55,42.7 -16.67,61.41 -11.11,18.71 -26.03,33.77 -44.74,45.18 -18.71,11.4 -39.48,17.11 -62.29,17.11l-268.45 0zm-417.16 0c-22.81,0 -43.57,-5.71 -62.29,-17.11 -18.71,-11.4 -33.77,-26.46 -45.18,-45.18 -11.4,-18.71 -17.11,-39.19 -17.11,-61.41l0 -538.66 124.58 0 0 153.53 193.88 0 0 124.58 -193.88 0 0 254.41c0,1.17 0.59,2.34 1.75,3.51 1.17,1.17 2.34,1.75 3.51,1.75l188.62 0 0 124.58 -193.88 0zm-634.72 0c-22.22,0 -42.7,-5.71 -61.41,-17.11 -18.71,-11.4 -33.77,-26.46 -45.18,-45.18 -11.4,-18.71 -17.11,-39.19 -17.11,-61.41l0 -22.81 124.58 0 0 16.67c0,1.17 0.59,2.34 1.75,3.51 1.17,1.17 2.34,1.75 3.51,1.75l256.17 0c1.17,0 2.34,-0.59 3.51,-1.75 1.17,-1.17 1.75,-2.34 1.75,-3.51l0 -57.02c0,-1.17 -0.59,-2.2 -1.75,-3.07 -1.17,-0.88 -2.34,-1.31 -3.51,-1.31l-262.31 0c-22.22,0 -42.7,-5.71 -61.41,-17.11 -18.71,-11.4 -33.77,-26.46 -45.18,-45.18 -11.4,-18.71 -17.11,-39.48 -17.11,-62.29l0 -69.31c0,-22.22 5.71,-42.7 17.11,-61.41 11.4,-18.71 26.46,-33.78 45.18,-45.18 18.71,-11.4 39.19,-17.1 61.41,-17.1l268.45 0c22.81,0 43.57,5.7 62.29,17.1 18.71,11.4 33.78,26.47 45.18,45.18 11.4,18.71 17.1,39.19 17.1,61.41l0 22.81 -125.45 0 0 -16.67c0,-1.17 -0.59,-2.34 -1.75,-3.51 -1.17,-1.17 -2.34,-1.75 -3.51,-1.75l-256.17 0c-1.17,0 -2.34,0.59 -3.51,1.75 -1.17,1.17 -1.75,2.34 -1.75,3.51l0 57.02c0,1.17 0.59,2.19 1.75,3.07 1.17,0.88 2.34,1.32 3.51,1.32l262.31 0c22.81,0 43.57,5.7 62.29,17.1 18.71,11.4 33.78,26.47 45.18,45.18 11.4,18.71 17.1,39.48 17.1,62.29l0 69.31c0,22.22 -5.7,42.7 -17.1,61.41 -11.4,18.71 -26.47,33.77 -45.18,45.18 -18.71,11.4 -39.48,17.11 -62.29,17.11l-268.45 0zm-1047.49 -127.21l367.59 0c1.75,0 3.07,-0.44 3.95,-1.32 0.88,-0.88 1.31,-2.19 1.31,-3.94l0 -366.71c0,-1.75 -0.44,-3.07 -1.31,-3.95 -0.88,-0.88 -2.2,-1.31 -3.95,-1.31l-367.59 0c-1.17,0 -2.34,0.44 -3.51,1.31 -1.17,0.88 -1.75,2.2 -1.75,3.95l0 366.71c0,1.75 0.59,3.07 1.75,3.94 1.17,0.88 2.34,1.32 3.51,1.32zm-130.72 127.21l0 -631.65 504.44 0c23.4,0 44.6,5.7 63.61,17.1 19,11.4 34.36,26.62 46.05,45.62 11.69,19.01 17.55,40.21 17.55,63.61l0 378.99c0,23.4 -5.85,44.6 -17.55,63.6 -11.69,19.01 -27.05,34.21 -46.05,45.62 -19.01,11.4 -40.21,17.11 -63.61,17.11l-504.44 0zm-632.09 0c-22.81,0 -43.57,-5.71 -62.29,-17.11 -18.71,-11.4 -33.77,-26.46 -45.18,-45.18 -11.4,-18.71 -17.11,-39.19 -17.11,-61.41l0 -43.86 125.45 0 0 37.72c0,1.17 0.44,2.34 1.32,3.51 0.88,1.17 1.9,1.75 3.07,1.75l363.2 0c1.17,0 2.34,-0.59 3.51,-1.75 1.17,-1.17 1.75,-2.34 1.75,-3.51l0 -121.07c0,-1.75 -0.59,-3.07 -1.75,-3.95 -1.17,-0.88 -2.34,-1.31 -3.51,-1.31l-386.89 0 0 -125.45 362.32 0c1.75,0 3.07,-0.44 3.95,-1.32 0.88,-0.88 1.31,-1.9 1.31,-3.07l0 -115.8c0,-1.17 -0.44,-2.34 -1.31,-3.51 -0.88,-1.17 -2.2,-1.75 -3.95,-1.75l-338.63 0c-1.17,0 -2.19,0.59 -3.07,1.75 -0.88,1.17 -1.32,2.34 -1.32,3.51l0 45.62 -125.45 0 0 -51.76c0,-22.81 5.71,-43.57 17.11,-62.29 11.4,-18.71 26.46,-33.63 45.18,-44.74 18.71,-11.11 39.48,-16.67 62.29,-16.67l350.04 0c22.81,0 43.57,5.55 62.29,16.67 18.71,11.11 33.63,26.03 44.74,44.74 11.11,18.71 16.67,39.48 16.67,62.29l0 127.21c0,7.02 -0.44,14.18 -1.31,21.49 -0.88,7.32 -2.49,13.89 -4.83,19.74 9.94,11.11 17.55,23.83 22.81,38.16 5.26,14.33 7.9,29.1 7.9,44.31l0 133.35c0,22.22 -5.55,42.7 -16.67,61.41 -11.11,18.71 -26.17,33.77 -45.18,45.18 -19.01,11.4 -39.63,17.11 -61.85,17.11l-374.6 0z"/>
  <path class="fil3" d="M6643.28 1046.32c-14.82,0 -28.46,-3.8 -40.94,-11.4 -12.48,-7.61 -22.51,-17.64 -30.12,-30.12 -7.61,-12.48 -11.4,-26.13 -11.4,-40.94l0 -174.29c0,-14.82 3.8,-28.46 11.4,-40.94 7.61,-12.48 17.64,-22.51 30.12,-30.12 12.48,-7.61 26.13,-11.4 40.94,-11.4l260.85 0 0 83.05 -256.76 0c-0.78,0 -1.56,0.39 -2.34,1.17 -0.78,0.78 -1.17,1.56 -1.17,2.34l0 166.1c0,0.78 0.39,1.56 1.17,2.34 0.78,0.78 1.56,1.17 2.34,1.17l257.34 0 0 83.05 -261.43 0zm-235.99 -366.71l0 0 0 -83.64 83.05 0 0 83.64 -83.05 0zm0 366.71l0 0 0 -339.22 83.05 0 0 339.22 -83.05 0zm-317.29 0l0 0 -186.57 -339.22 95.91 0 127.5 235.11 128.08 -235.11 95.91 0 -187.15 339.22 -73.69 0zm-490.99 -83.05l170.77 0c0.78,0 1.56,-0.39 2.34,-1.17 0.78,-0.78 1.17,-1.56 1.17,-2.34l0 -166.1c0,-0.78 -0.39,-1.56 -1.17,-2.34 -0.78,-0.78 -1.56,-1.17 -2.34,-1.17l-170.77 0c-0.78,0 -1.56,0.39 -2.34,1.17 -0.78,0.78 -1.17,1.56 -1.17,2.34l0 166.1c0,0.78 0.39,1.56 1.17,2.34 0.78,0.78 1.56,1.17 2.34,1.17zm-4.1 83.05c-14.82,0 -28.46,-3.8 -40.94,-11.4 -12.48,-7.61 -22.51,-17.64 -30.12,-30.12 -7.61,-12.48 -11.4,-26.13 -11.4,-40.94l0 -174.29c0,-14.82 3.8,-28.46 11.4,-40.94 7.61,-12.48 17.64,-22.51 30.12,-30.12 12.48,-7.61 26.13,-11.4 40.94,-11.4l178.97 0c15.21,0 29.05,3.8 41.53,11.4 12.48,7.61 22.42,17.64 29.83,30.12 7.41,12.48 11.11,26.13 11.11,40.94l0 174.29c0,14.82 -3.7,28.46 -11.11,40.94 -7.41,12.48 -17.35,22.51 -29.83,30.12 -12.48,7.61 -26.32,11.4 -41.53,11.4l-178.97 0zm-476.96 0l0 0 0 -450.35 83.05 0 0 238.63 53.22 0 117.56 -127.5 85.98 0 0 25.73 -130.43 143.88 130.43 143.88 0 25.73 -85.98 0 -117.56 -127.5 -53.22 0 0 127.5 -83.05 0zm-287.46 -374.31l0 0 28.66 -112.88 85.39 0 -28.66 112.88 -85.39 0zm-51.47 291.26l174.29 0 0 -54.39 -177.8 0 0 50.88c0,0.78 0.39,1.56 1.17,2.34 0.78,0.78 1.56,1.17 2.33,1.17zm-4.09 83.05c-14.82,0 -28.56,-3.8 -41.23,-11.4 -12.68,-7.61 -22.71,-17.64 -30.12,-30.12 -7.41,-12.48 -11.11,-26.13 -11.11,-40.94l0 -129.25 260.85 0 0 -40.94c0,-0.78 -0.39,-1.56 -1.17,-2.34 -0.78,-0.78 -1.56,-1.17 -2.34,-1.17l-257.34 0 0 -83.05 261.43 0c15.2,0 29.05,3.8 41.52,11.4 12.48,7.61 22.42,17.64 29.83,30.12 7.41,12.48 11.11,26.13 11.11,40.94l0 256.76 -261.43 0zm-407.36 0l0 0 0 -256.76c0,-14.82 3.8,-28.46 11.4,-40.94 7.6,-12.48 17.74,-22.51 30.41,-30.12 12.68,-7.61 26.42,-11.4 41.23,-11.4l187.75 0 0 83.05 -184.24 0c-0.77,0 -1.55,0.39 -2.33,1.17 -0.78,0.78 -1.17,1.56 -1.17,2.34l0 252.66 -83.05 0zm-323.14 -83.05l170.77 0c0.78,0 1.56,-0.39 2.34,-1.17 0.78,-0.78 1.17,-1.56 1.17,-2.34l0 -166.1c0,-0.78 -0.39,-1.56 -1.17,-2.34 -0.78,-0.78 -1.56,-1.17 -2.34,-1.17l-170.77 0c-0.78,0 -1.56,0.39 -2.34,1.17 -0.78,0.78 -1.17,1.56 -1.17,2.34l0 166.1c0,0.78 0.39,1.56 1.17,2.34 0.78,0.78 1.56,1.17 2.34,1.17zm-4.1 83.05c-14.82,0 -28.46,-3.8 -40.94,-11.4 -12.48,-7.61 -22.51,-17.64 -30.12,-30.12 -7.61,-12.48 -11.4,-26.13 -11.4,-40.94l0 -174.29c0,-14.82 3.8,-28.46 11.4,-40.94 7.61,-12.48 17.64,-22.51 30.12,-30.12 12.48,-7.61 26.13,-11.4 40.94,-11.4l178.97 0c15.21,0 29.05,3.8 41.53,11.4 12.48,7.61 22.42,17.64 29.83,30.12 7.41,12.48 11.11,26.13 11.11,40.94l0 174.29c0,14.82 -3.7,28.46 -11.11,40.94 -7.41,12.48 -17.35,22.51 -29.83,30.12 -12.48,7.61 -26.32,11.4 -41.53,11.4l-178.97 0zm-595.1 0l0 -421.1 84.22 0 0 167.85 261.43 0 0 -167.85 84.22 0 0 421.1 -84.22 0 0 -167.85 -261.43 0 0 167.85 -84.22 0z"/>
 </g>
</svg>
